# xmcd
#
# Track frame offsets:
#	150
#	16607
#	31220
#	48269
#	61640
#	78613
#	95164
#	110792
#	125129
#	138682
#	154561
#	169168
#	184139
#	197998
#	212897
#
# Disc length: 3076 seconds
#
# Revision: 1
# Processed by: cddbd v1.5.2PL0 Copyright (c) Steve Scherf et al.
# Submitted via: audiograbber 1.83.01
#
DISCID=d50c020f
DTITLE=The Boot Scooters - Down the line
DYEAR=1995
DGENRE=Country
TTITLE0=My pick-up truck
TTITLE1=Out of school
TTITLE2=Let's Take A Chance
TTITLE3=Boot Scoot Baby
TTITLE4=Sleepin' Alone
TTITLE5=Be My Valentine
TTITLE6=You're My Dreams Come True
TTITLE7=Down The Line
TTITLE8=Skinny Dippin'
TTITLE9=Wilder Than The Wind
TTITLE10=Boot Scoot Boogie
TTITLE11=Long Weekend
TTITLE12=Just A Lad
TTITLE13=Down To The River
TTITLE14=They Can't Outrage Us
EXTD=
EXTT0=
EXTT1=
EXTT2=
EXTT3=
EXTT4=
EXTT5=
EXTT6=
EXTT7=
EXTT8=
EXTT9=
EXTT10=
EXTT11=
EXTT12=
EXTT13=
EXTT14=
PLAYORDER=
